<svg width="242" height="36" fill="none" xmlns="http://www.w3.org/2000/svg"><g clip-path="url(#clip0)" fill="#000"><path d="M3.642 7.802c-.26.013-.521-.03-.765-.129a1.89 1.89 0 0 1-.653-.44 3.071 3.071 0 0 1-.666-1.498l-1.417.75c.074.396.203.78.382 1.137.185.345.43.65.723.899a2.93 2.93 0 0 0 1.05.599 3.95 3.95 0 0 0 1.417.224c.448.009.895-.067 1.318-.224a2.9 2.9 0 0 0 .992-.6c.263-.24.476-.535.624-.868.14-.33.212-.687.213-1.048a2.392 2.392 0 0 0-.154-.97 2.285 2.285 0 0 0-.527-.812 4.267 4.267 0 0 0-2.084-.958 4.756 4.756 0 0 1-1.545-.555.928.928 0 0 1-.358-.346.998.998 0 0 1-.138-.492.7.7 0 0 1 .128-.42.941.941 0 0 1 .297-.284c.105-.109.224-.2.355-.27a2.12 2.12 0 0 1 .538 0c.448-.017.887.125 1.248.405.36.274.636.654.794 1.093l1.247-.764A3.383 3.383 0 0 0 5.456.57 3.415 3.415 0 0 0 3.458 0a3.732 3.732 0 0 0-1.205.18c-.342.09-.662.26-.936.494-.264.217-.474.5-.61.823a2.114 2.114 0 0 0-.226 1.004c-.005.346.063.688.198 1.003.134.296.322.56.553.779.25.229.532.416.836.554.34.156.698.267 1.064.33a5.38 5.38 0 0 1 1.545.538c.147.087.27.21.361.36a1.105 1.105 0 0 1 .065 1.015 1.05 1.05 0 0 1-.313.407c-.34.234-.743.344-1.148.315zm8.223-1.033h3.26l.85 2.336h1.702L14.26.12h-1.503L9.342 9.105h1.7l.823-2.336zm1.318-3.64c0-.09 0-.18.1-.284l.099-.314c0-.12.07-.24.113-.375 0 .135.085.255.113.375.029.12.071.224.1.314.028.09.07.195.099.285l.78 2.141h-2.183l.78-2.141zM23.36 9.105L26.493.12h-1.73l-1.899 5.765a3.126 3.126 0 0 0-.113.39c0 .12-.071.239-.1.374a3.533 3.533 0 0 0-.099.36 3.47 3.47 0 0 1-.113-.36c0-.135-.07-.255-.1-.375a3.109 3.109 0 0 0-.113-.389L20.327.18h-1.73l3.147 8.985 1.616-.06zm7.259-3.864h3.898V3.744h-3.898V1.677h4.238V.18h-5.826v8.925h5.855V7.592h-4.267v-2.35zm175.654 3.864h1.588v-3.49L210.695.18h-1.757l-1.559 3.174-.1.21-.085.21-.085.224-.156-.224v-.21l-.099-.21-1.63-3.174h-1.744l2.835 5.436-.042 3.489zm13.665-7.787a4.252 4.252 0 0 0-1.418-.974 4.471 4.471 0 0 0-3.444 0c-.516.228-.985.56-1.379.98a4.517 4.517 0 0 0-.918 1.461 5.304 5.304 0 0 0-.326 1.857 5.22 5.22 0 0 0 .326 1.842c.209.56.523 1.069.922 1.498.403.421.886.748 1.417.958a4.314 4.314 0 0 0 3.445 0 3.994 3.994 0 0 0 1.417-.958 4.52 4.52 0 0 0 .921-1.498 5.212 5.212 0 0 0 .227-1.842 5.304 5.304 0 0 0-.326-1.857 4.534 4.534 0 0 0-.864-1.467zm-.582 4.672a3.007 3.007 0 0 1-.581.973c-.242.27-.537.48-.865.614a2.84 2.84 0 0 1-2.14 0 2.275 2.275 0 0 1-.865-.614 2.73 2.73 0 0 1-.581-.973 3.633 3.633 0 0 1-.212-1.288c-.008-.44.065-.877.212-1.288a2.73 2.73 0 0 1 .581-.973c.24-.273.536-.483.865-.614a2.84 2.84 0 0 1 2.14 0c.328.135.623.345.865.614.252.282.449.612.581.973.148.411.22.848.213 1.288.007.44-.065.877-.213 1.288zm9.667 2.995c.41-.145.787-.38 1.106-.689.307-.316.552-.692.723-1.108.178-.477.269-.985.269-1.497V.18h-1.602v5.376a2.33 2.33 0 0 1-.496 1.602 1.75 1.75 0 0 1-.648.454 1.669 1.669 0 0 1-.769.115 1.633 1.633 0 0 1-.772-.11 1.71 1.71 0 0 1-.646-.459 2.235 2.235 0 0 1-.408-.747 2.312 2.312 0 0 1-.102-.855V.18h-1.588v5.54a3.98 3.98 0 0 0 .27 1.498c.176.425.439.803.77 1.109.331.305.721.53 1.143.658a4.038 4.038 0 0 0 2.75 0zm7.045-3.505h1.418l1.956 3.624h1.829l-2.041-3.773a3.425 3.425 0 0 0 1.417-.959 2.503 2.503 0 0 0 .539-1.662 2.51 2.51 0 0 0-.213-1.048 2.35 2.35 0 0 0-.595-.809 2.785 2.785 0 0 0-.95-.494 4.042 4.042 0 0 0-1.29-.18h-3.615v8.985h1.602l-.057-3.683zm0-3.818h2.07c.383-.033.765.079 1.077.314a1.103 1.103 0 0 1 .326.854 1.103 1.103 0 0 1-.326.854 1.565 1.565 0 0 1-1.077.314h-2.013l-.057-2.336zM21.092 33.559L16.06 18.225h-3.005L8.533 33.589 3.46 18.225H0L5.897 36h3.062l4.493-15.215L18.484 36h3.062l5.344-17.775h-1.233l-4.565 15.334zM44.353 18.24l-7.044 17.7h3.472l2.17-5.48h7.88l2.042 5.48h1.29l-6.705-17.7h-3.105zm-.978 11.171l3.63-9.195 3.415 9.195h-7.045zm38.642-.959a3.859 3.859 0 0 0-2.226-1.048c.56-.07 1.11-.22 1.63-.45.49-.21.94-.509 1.333-.883a4 4 0 0 0 .879-1.362A4.4 4.4 0 0 0 83.959 23a4.208 4.208 0 0 0-.384-1.994 3.959 3.959 0 0 0-1.26-1.54 8.612 8.612 0 0 0-5.047-1.213h-6.563V35.94h3.331v-8.087h3.232a4.936 4.936 0 0 1 2.594.63c.41.313.755.71 1.016 1.168.26.459.43.968.5 1.497l1.078 4.792h2.07l-1.106-4.717a5.598 5.598 0 0 0-1.403-2.77zm-4.791-1.647h-3.19v-7.488h3.218a4.92 4.92 0 0 1 3.558 1.034 3.886 3.886 0 0 1 1.036 2.658c0 .996-.372 1.951-1.036 2.658a4.874 4.874 0 0 1-3.587 1.123v.015zm37.037-6.424a7.354 7.354 0 0 0-2.835-1.632 12.367 12.367 0 0 0-3.685-.524h-6.677V35.94h6.663a10.344 10.344 0 0 0 3.685-.614 7.957 7.957 0 0 0 2.835-1.737 7.776 7.776 0 0 0 1.829-2.83c.459-1.209.685-2.502.666-3.804a10.417 10.417 0 0 0-.652-3.878 7.168 7.168 0 0 0-1.829-2.696zm-.227 9.854a6.642 6.642 0 0 1-1.204 2.486 5.435 5.435 0 0 1-2.098 1.587 7.43 7.43 0 0 1-3.005.569h-3.317V19.333h3.317a5.97 5.97 0 0 1 2.771.402 6.267 6.267 0 0 1 2.332 1.634 8.906 8.906 0 0 1 1.601 5.586 12.114 12.114 0 0 1-.397 3.28zm30.548-1.782a3.705 3.705 0 0 0-2.211-1.034 5.091 5.091 0 0 0 1.63-.449 4.683 4.683 0 0 0 1.332-.884c.392-.38.705-.843.917-1.36.213-.515.32-1.072.317-1.635a4.203 4.203 0 0 0-.369-2.047 3.956 3.956 0 0 0-1.29-1.576 8.651 8.651 0 0 0-5.046-1.213h-6.62V35.94h3.331v-8.056h3.246a5.015 5.015 0 0 1 2.594.643c.41.312.755.71 1.014 1.168.258.459.425.969.489 1.498l1.091 4.792h2.056l-1.063-4.717a5.497 5.497 0 0 0-1.418-2.816zm-4.791-1.648h-3.175v-7.487h3.217a4.881 4.881 0 0 1 3.573 1.048 3.885 3.885 0 0 1 1.043 2.666c0 .999-.375 1.958-1.043 2.665a4.912 4.912 0 0 1-3.601 1.078l-.014.03zm38.881-6.229a8.579 8.579 0 0 0-2.835-1.738 9.734 9.734 0 0 0-6.804 0 8.29 8.29 0 0 0-2.835 1.738 7.971 7.971 0 0 0-1.772 2.785 9.418 9.418 0 0 0-.708 3.714c-.01 1.26.226 2.51.694 3.669a8.392 8.392 0 0 0 1.865 2.823 7.854 7.854 0 0 0 2.784 1.789 9.238 9.238 0 0 0 3.487.644 9.127 9.127 0 0 0 3.445-.644 8.201 8.201 0 0 0 2.835-1.797 8.412 8.412 0 0 0 1.871-2.815c.463-1.17.701-2.424.701-3.692 0-1.267-.238-2.522-.701-3.691a7.918 7.918 0 0 0-2.027-2.785zm-.666 9.599a7.059 7.059 0 0 1-1.163 2.38 5.44 5.44 0 0 1-1.856 1.498 5.66 5.66 0 0 1-2.509.54 5.738 5.738 0 0 1-2.538-.54 5.377 5.377 0 0 1-1.871-1.497 7.041 7.041 0 0 1-1.148-2.381 11.13 11.13 0 0 1-.397-3.1 8.528 8.528 0 0 1 1.588-5.451 5.936 5.936 0 0 1 1.979-1.493 5.654 5.654 0 0 1 2.38-.527c.819 0 1.629.18 2.379.527a5.936 5.936 0 0 1 1.979 1.493 8.62 8.62 0 0 1 1.588 5.45 11.06 11.06 0 0 1-.411 3.1zm29.754-3.31a4.388 4.388 0 0 0 2.538-1.362c.331-.364.591-.793.763-1.264.173-.47.256-.972.243-1.477a3.936 3.936 0 0 0-.366-1.96 3.7 3.7 0 0 0-1.264-1.484 8.054 8.054 0 0 0-4.508-1.078h-7.328v17.7h7.371a8.672 8.672 0 0 0 4.748-1.123 3.844 3.844 0 0 0 1.339-1.55c.305-.637.44-1.348.391-2.059a4.32 4.32 0 0 0-.259-1.614 4.136 4.136 0 0 0-.833-1.38 4.401 4.401 0 0 0-2.835-1.349zm-6.591-7.487h3.855a4.54 4.54 0 0 1 3.176.928c.336.316.601.707.775 1.145.174.438.253.912.231 1.386.016.48-.066.959-.239 1.403a3.384 3.384 0 0 1-.767 1.173 4.394 4.394 0 0 1-3.176.973h-3.855v-7.008zm7.328 14.556a4.755 4.755 0 0 1-3.402 1.003h-3.926v-7.488h3.926a4.705 4.705 0 0 1 3.388 1.034 3.932 3.932 0 0 1 1.054 2.695c0 1.01-.379 1.98-1.054 2.696l.014.06zm23.091-6.574h8.774v-1.124h-8.774v-6.903h9.398v-1.108H228.23V36h12.928v-1.123h-9.568v-7.518z"/></g><defs><clipPath id="clip0"><path fill="#fff" d="M0 0h241.2v36H0z"/></clipPath></defs></svg>